<?xml version="1.0" standalone="no"?>
<!DOCTYPE svg PUBLIC "-//W3C//DTD SVG 20010904//EN"
 "http://www.w3.org/TR/2001/REC-SVG-20010904/DTD/svg10.dtd">
<svg version="1.0" xmlns="http://www.w3.org/2000/svg"
 width="300.000000pt" height="78.000000pt" viewBox="0 0 300.000000 78.000000"
 preserveAspectRatio="xMidYMid meet">
<metadata>
Created by potrace 1.10, written by Peter Selinger 2001-2011
</metadata>
<g transform="translate(0.000000,78.000000) scale(0.100000,-0.100000)"
fill="#000000" stroke="none">
<path d="M1356 698 c4 -7 16 -26 27 -41 26 -38 14 -46 -25 -17 -24 18 -30 19
-25 6 6 -15 4 -15 -25 0 -29 15 -30 15 -24 -1 5 -15 2 -17 -25 -11 -27 5 -30
4 -19 -9 11 -13 8 -15 -15 -15 -20 0 -26 -4 -21 -15 3 -9 -3 -19 -16 -26 -16
-9 -18 -13 -7 -19 11 -7 10 -12 -4 -28 -21 -23 -22 -33 -2 -26 18 7 18 4 5
-32 -9 -23 -9 -25 4 -15 13 11 17 7 25 -21 5 -18 10 -27 10 -20 1 10 10 7 31
-8 16 -11 62 -36 102 -54 40 -19 82 -41 93 -49 19 -15 18 -16 -19 -38 -22 -13
-34 -25 -27 -27 7 -2 26 5 42 17 l30 22 15 -33 15 -33 -6 35 c-7 42 -7 53 1
108 4 27 2 42 -4 42 -18 0 -31 -33 -21 -52 5 -10 5 -19 0 -23 -13 -7 -24 12
-15 26 4 8 -1 9 -16 4 -22 -7 -23 -5 -17 31 4 21 16 47 28 58 l21 21 -6 -27
c-7 -30 4 -37 23 -14 13 16 -1 56 -18 56 -19 0 -61 -63 -61 -91 l0 -30 -60 32
-59 31 14 28 c8 15 28 33 45 38 l30 11 0 -40 c0 -21 4 -39 9 -39 14 0 22 29
15 56 -3 13 -2 24 3 24 5 0 18 7 29 16 18 15 17 15 -12 10 -29 -5 -32 -2 -36
24 -3 17 -1 30 4 30 4 0 32 -24 62 -52 30 -29 69 -66 86 -82 21 -19 30 -35 27
-47 -6 -23 2 -24 31 -3 29 20 28 35 -3 64 -14 13 -24 29 -22 34 6 16 -30 64
-105 145 -72 76 -85 81 -41 16 l26 -40 -27 25 c-15 14 -35 37 -44 53 -9 15
-20 27 -25 27 -4 0 -5 -6 -1 -12z m119 -125 c11 -7 20 -25 20 -38 1 -14 1 -25
0 -25 0 0 -21 21 -45 46 -39 40 -42 45 -20 39 14 -4 34 -14 45 -22z m-122 -24
c-10 -17 -28 -42 -41 -56 -12 -13 -20 -27 -18 -31 2 -4 -2 -13 -10 -20 -11
-10 -16 -8 -28 10 -19 30 -22 47 -13 79 8 31 39 47 90 48 l38 1 -18 -31z m8
-51 c-29 -12 -32 -8 -14 18 15 24 17 25 24 8 4 -13 1 -21 -10 -26z m175 15
c-7 -7 -26 7 -26 19 0 6 6 6 15 -2 9 -7 13 -15 11 -17z"/>
</g>
</svg>
